<svg width="48" height="48" viewBox="0 0 48 48" fill="none" xmlns="http://www.w3.org/2000/svg">
<path d="M34.168 9.42916L25.2337 2.8449C24.414 2.24099 23.4661 1.95207 22.5118 2.01524C21.5575 2.07841 20.6404 2.49079 19.8781 3.19944L4.08594 17.8874L4.82062 45.548L44.7679 44.0691L44.1665 16.8086L39.4837 13.3544" stroke="#182DEF" stroke-width="0.41197" stroke-linecap="round" stroke-linejoin="round"/>
<path d="M4.73803 45.3893C7.97336 42.7162 11.2009 40.0307 14.4207 37.3329L19.2503 33.281C20.0551 32.6057 20.8474 31.9085 21.6398 31.2095L22.2358 30.6896C22.3333 30.6035 22.4555 30.5106 22.564 30.4211C22.6724 30.3317 22.796 30.2523 22.9141 30.1814C23.6407 29.738 24.4479 29.5316 25.258 29.5822C26.0682 29.6327 26.8542 29.9385 27.5405 30.4701C28.3645 31.1167 29.1747 31.7819 30 32.42C31.6479 33.7082 33.3026 34.9659 34.9533 36.2389C38.2586 38.7713 41.5599 41.3239 44.8749 43.8361C44.9193 43.8722 44.9506 43.9282 44.9622 43.9921C44.9738 44.0561 44.9647 44.123 44.937 44.179C44.9093 44.2349 44.865 44.2755 44.8135 44.2921C44.7619 44.3088 44.7072 44.3002 44.6606 44.2683C41.3255 41.7921 37.984 39.329 34.636 36.8787C32.9621 35.6531 31.295 34.4105 29.6141 33.1983C28.7778 32.5889 27.9223 32.0013 27.0846 31.4037C26.318 30.8758 25.4375 30.6517 24.5634 30.7622C24.1283 30.8206 23.7025 30.9577 23.3 31.169C23.2011 31.2264 23.1009 31.2821 23.0034 31.3379C22.9059 31.3936 22.8166 31.4645 22.7123 31.5455L22.0902 32.0182C21.2662 32.6463 20.43 33.2743 19.6115 33.9243L14.6981 37.8461C11.4252 40.4483 8.16012 43.0645 4.90281 45.6948C4.86993 45.7168 4.83153 45.7229 4.7952 45.7118C4.75888 45.7007 4.72725 45.6732 4.70657 45.6349C4.68588 45.5965 4.67764 45.55 4.68346 45.5045C4.68929 45.4591 4.70875 45.418 4.73803 45.3893Z" fill="#182DEF"/>
<path d="M4.14337 17.7927C5.49326 19.0218 6.82941 20.2745 8.17243 21.5069L12.1768 25.265C13.5129 26.5177 14.8381 27.7839 16.1688 29.0434L18.1586 30.9427L19.1528 31.8915C19.4755 32.2291 19.8573 32.4604 20.0371 33.0142C20.0488 33.0502 20.0545 33.0887 20.0539 33.1274C20.0533 33.1661 20.0464 33.2043 20.0336 33.2397C20.0208 33.2751 20.0024 33.307 19.9794 33.3335C19.9564 33.36 19.9294 33.3806 19.8998 33.3941C19.8612 33.4138 19.8188 33.4196 19.7776 33.4109C19.2984 33.3248 19.021 32.9247 18.679 32.6158L17.7054 31.6518L15.7389 29.717C14.4316 28.4204 13.1216 27.1306 11.8197 25.834L7.91152 21.9206C6.61793 20.6037 5.31611 19.2987 4.02802 17.9717C4.01154 17.9518 4.00163 17.9252 4.00018 17.8969C3.99874 17.8686 4.00587 17.8406 4.02019 17.8184C4.03452 17.7962 4.05503 17.7813 4.07778 17.7765C4.10052 17.7718 4.12389 17.7776 4.14337 17.7927Z" fill="#182DEF"/>
<path d="M44.2539 16.9335C43.018 18.2571 41.7725 19.5638 40.5311 20.8789L36.7932 24.794L33.0305 28.6889L31.1505 30.6388L30.2099 31.6113C29.9011 31.9524 29.5537 32.2368 29.1786 32.4554C29.1263 32.4831 29.0672 32.4844 29.0142 32.4587C28.9612 32.4331 28.9186 32.3827 28.8957 32.3186C28.8816 32.2778 28.876 32.2332 28.8794 32.189C28.8827 32.1448 28.8949 32.1024 28.9149 32.0654C29.1558 31.651 29.445 31.2824 29.7732 30.9714L30.7235 30.0142L32.6226 28.098L36.4251 24.269L40.2413 20.4619C41.5198 19.2025 42.7942 17.9295 44.0781 16.6853C44.1062 16.6566 44.1423 16.6428 44.1787 16.647C44.215 16.6511 44.2485 16.6728 44.2718 16.7072C44.2951 16.7417 44.3063 16.7862 44.3029 16.8308C44.2996 16.8754 44.282 16.9166 44.2539 16.9453V16.9335Z" fill="#182DEF"/>
<path d="M7.63401 21.5712L6.74965 17.7439C6.72296 17.6259 6.73526 17.4997 6.78387 17.3929C6.83248 17.286 6.91347 17.2071 7.00919 17.1732H7.0243H7.04352L38.3449 8.12075C38.3641 8.11517 38.3842 8.11915 38.4009 8.13181C38.4177 8.14447 38.4296 8.16478 38.4342 8.18828L40.8593 20.3303C40.8723 20.3957 40.8635 20.4647 40.8351 20.5221C40.8066 20.5796 40.7608 20.6208 40.7076 20.6367C40.6544 20.6526 40.5983 20.6419 40.5515 20.6069C40.5048 20.5719 40.4713 20.5155 40.4584 20.4502L38.29 8.23049L38.3793 8.29802L7.23303 18.1136L7.5269 17.5328L8.03637 21.4614C8.04821 21.527 8.03836 21.5957 8.009 21.6524C7.97965 21.7091 7.93318 21.7491 7.87982 21.7636C7.82647 21.7782 7.77059 21.7661 7.72449 21.73C7.6784 21.6939 7.64585 21.6368 7.63401 21.5712Z" fill="#182DEF"/>
<path d="M4.86981 22.4018L4.22852 23.0636V20.4147L4.82175 19.8019C4.82733 19.7966 4.83398 19.7933 4.84097 19.7924C4.84796 19.7915 4.85502 19.7929 4.86139 19.7966C4.86776 19.8002 4.8732 19.8059 4.8771 19.8131C4.88101 19.8203 4.88324 19.8287 4.88354 19.8373V22.3697C4.88344 22.376 4.88214 22.3822 4.87976 22.3877C4.87738 22.3933 4.87397 22.3981 4.86981 22.4018Z" fill="#182DEF"/>
<path d="M4.86979 28.8509L4.22852 29.511V26.8621L4.82173 26.2493C4.82714 26.2433 4.83386 26.2395 4.84104 26.2382C4.84823 26.2369 4.85557 26.2382 4.86215 26.2419C4.86873 26.2457 4.87426 26.2518 4.87806 26.2594C4.88187 26.267 4.88376 26.2758 4.88352 26.2848V28.8172C4.88342 28.8237 4.88214 28.8301 4.87976 28.836C4.87739 28.8418 4.87398 28.8469 4.86979 28.8509Z" fill="#182DEF"/>
<path d="M5.198 34.9237L4.55664 35.5855V32.9366L5.14993 32.3272C5.15525 32.3213 5.16184 32.3175 5.1689 32.3161C5.17596 32.3147 5.18318 32.3159 5.18971 32.3195C5.19624 32.323 5.20179 32.3289 5.2057 32.3362C5.2096 32.3436 5.2117 32.3521 5.21173 32.3609V34.8933C5.21125 34.8993 5.20978 34.9051 5.20742 34.9103C5.20505 34.9155 5.20185 34.9201 5.198 34.9237Z" fill="#182DEF"/>
<path d="M5.19798 41.3728L4.55664 42.0329V39.384L5.14991 38.7729C5.15532 38.7669 5.16204 38.763 5.16922 38.7617C5.17641 38.7604 5.18375 38.7617 5.19033 38.7655C5.19691 38.7693 5.20245 38.7754 5.20625 38.783C5.21005 38.7906 5.21195 38.7994 5.21171 38.8083V41.3407C5.21051 41.3531 5.20562 41.3645 5.19798 41.3728Z" fill="#182DEF"/>
<path d="M6.88591 44.6397L7.42834 45.4247L5.27372 45.4433L4.77111 44.7174C4.76683 44.7105 4.76417 44.7023 4.76341 44.6937C4.76265 44.6851 4.76382 44.6765 4.76679 44.6686C4.76976 44.6608 4.77443 44.6541 4.78027 44.6493C4.78612 44.6445 4.79292 44.6418 4.79995 44.6414L6.85982 44.6245C6.86477 44.6248 6.86964 44.6263 6.87412 44.6289C6.8786 44.6315 6.88261 44.6352 6.88591 44.6397Z" fill="#182DEF"/>
<path d="M12.1301 44.594L12.6725 45.3774L10.5179 45.3977L10.0153 44.6717C10.0105 44.665 10.0073 44.6568 10.0063 44.648C10.0052 44.6391 10.0063 44.6301 10.0093 44.622C10.0124 44.6139 10.0173 44.6071 10.0235 44.6024C10.0297 44.5978 10.0369 44.5954 10.0442 44.5957L12.104 44.5771C12.1091 44.5777 12.114 44.5795 12.1184 44.5824C12.1229 44.5853 12.1269 44.5892 12.1301 44.594Z" fill="#182DEF"/>
<path d="M17.0685 44.145L17.6178 44.9299L15.4632 44.9485L14.9606 44.2226C14.9563 44.2157 14.9536 44.2076 14.9529 44.199C14.9521 44.1904 14.9533 44.1817 14.9562 44.1739C14.9592 44.166 14.9639 44.1594 14.9697 44.1546C14.9756 44.1498 14.9824 44.147 14.9894 44.1466L17.0493 44.1298C17.057 44.1318 17.0638 44.1372 17.0685 44.145Z" fill="#182DEF"/>
<path d="M22.3128 44.1011L22.8552 44.8844L20.7006 44.903L20.1994 44.1788C20.1946 44.1722 20.1915 44.1641 20.1904 44.1555C20.1893 44.1468 20.1902 44.1379 20.1931 44.1299C20.196 44.1218 20.2008 44.115 20.2067 44.1102C20.2127 44.1054 20.2197 44.1028 20.2268 44.1028L22.2867 44.0842C22.2918 44.0845 22.2968 44.0861 22.3013 44.0891C22.3058 44.092 22.3097 44.0961 22.3128 44.1011Z" fill="#182DEF"/>
<path d="M25.7996 43.9322L26.342 44.7155L24.1874 44.7341L23.6862 44.0098C23.6814 44.0033 23.6783 43.9952 23.6772 43.9865C23.6761 43.9778 23.6771 43.9689 23.68 43.9609C23.6829 43.9529 23.6876 43.9461 23.6936 43.9413C23.6995 43.9365 23.7065 43.9339 23.7137 43.9339L25.7735 43.9153C25.7786 43.9155 25.7836 43.9172 25.7881 43.9201C25.7926 43.923 25.7966 43.9271 25.7996 43.9322Z" fill="#182DEF"/>
<path d="M30.7376 43.6907L31.28 44.4741L29.1254 44.4944L28.6242 43.7684C28.6194 43.7618 28.6163 43.7537 28.6152 43.7451C28.6141 43.7364 28.615 43.7275 28.6179 43.7195C28.6208 43.7114 28.6256 43.7046 28.6315 43.6998C28.6375 43.695 28.6445 43.6924 28.6517 43.6924L30.7115 43.6738C30.7165 43.6744 30.7214 43.6762 30.7259 43.6791C30.7304 43.682 30.7344 43.6859 30.7376 43.6907Z" fill="#182DEF"/>
<path d="M35.9816 43.4377L36.5309 44.2227L34.3749 44.2413L33.8737 43.517C33.8689 43.5105 33.8658 43.5024 33.8647 43.4937C33.8636 43.485 33.8646 43.4761 33.8675 43.4681C33.8704 43.4601 33.8751 43.4533 33.8811 43.4485C33.887 43.4437 33.894 43.4411 33.9012 43.4411L35.961 43.4225C35.9691 43.4245 35.9764 43.4298 35.9816 43.4377Z" fill="#182DEF"/>
<path d="M41.0504 43.4377L41.5997 44.2227L39.4452 44.2413L38.9426 43.517C38.9377 43.5104 38.9346 43.5021 38.9335 43.4933C38.9324 43.4845 38.9335 43.4754 38.9366 43.4673C38.9397 43.4592 38.9446 43.4524 38.9508 43.4478C38.957 43.4431 38.9641 43.4408 38.9714 43.4411L41.0312 43.4225C41.0388 43.4249 41.0455 43.4303 41.0504 43.4377Z" fill="#182DEF"/>
<path d="M44.2253 43.4377L44.7678 44.2227L42.6131 44.2413L42.1105 43.517C42.1057 43.5104 42.1025 43.5021 42.1015 43.4933C42.1004 43.4845 42.1015 43.4754 42.1046 43.4673C42.1076 43.4592 42.1126 43.4524 42.1188 43.4478C42.1249 43.4431 42.1321 43.4408 42.1394 43.4411L44.1992 43.4225C44.2092 43.4234 44.2185 43.4288 44.2253 43.4377Z" fill="#182DEF"/>
<path d="M44.1978 22.0456L43.5552 22.7041V20.0535L44.1498 19.4423C44.1552 19.4369 44.1618 19.4335 44.1687 19.4324C44.1757 19.4314 44.1828 19.4329 44.1891 19.4366C44.1954 19.4403 44.2007 19.4461 44.2045 19.4534C44.2082 19.4607 44.2102 19.4691 44.2102 19.4778V22.0102C44.2104 22.0168 44.2093 22.0235 44.2072 22.0296C44.2051 22.0357 44.2019 22.0412 44.1978 22.0456Z" fill="#182DEF"/>
<path d="M44.1978 28.4931L43.5552 29.1549V26.5044L44.1498 25.8932C44.1552 25.8878 44.1618 25.8844 44.1688 25.8834C44.1757 25.8824 44.1828 25.8838 44.1891 25.8875C44.1954 25.8912 44.2008 25.897 44.2045 25.9043C44.2082 25.9116 44.2102 25.9201 44.2102 25.9287V28.461C44.21 28.4671 44.2088 28.4731 44.2067 28.4786C44.2045 28.4841 44.2015 28.4891 44.1978 28.4931Z" fill="#182DEF"/>
<path d="M44.5246 34.5674L43.8833 35.2292V32.5786L44.4765 31.9674C44.4819 31.9615 44.4886 31.9576 44.4958 31.9563C44.503 31.955 44.5104 31.9563 44.5169 31.9601C44.5235 31.9639 44.529 31.9699 44.5328 31.9775C44.5366 31.9852 44.5385 31.994 44.5383 32.0029V34.5353C44.5379 34.5415 44.5364 34.5475 44.534 34.5531C44.5317 34.5586 44.5285 34.5634 44.5246 34.5674Z" fill="#182DEF"/>
<path d="M44.5246 41.015L43.8833 41.6768V39.0279L44.4765 38.4151C44.4819 38.4091 44.4886 38.4052 44.4958 38.4039C44.503 38.4026 44.5104 38.4039 44.5169 38.4077C44.5235 38.4115 44.529 38.4176 44.5328 38.4252C44.5366 38.4328 44.5385 38.4416 44.5383 38.4505V40.9829C44.5379 40.9891 44.5364 40.9951 44.534 41.0006C44.5317 41.0061 44.5285 41.011 44.5246 41.015Z" fill="#182DEF"/>
<path d="M15.7827 17.0111L31.9099 11.9564C31.9361 11.9482 31.9634 11.9465 31.9902 11.9512C32.017 11.956 32.0428 11.9672 32.0661 11.9842C32.0893 12.0012 32.1097 12.0237 32.1259 12.0504C32.1421 12.077 32.1538 12.1073 32.1605 12.1396C32.1672 12.1719 32.1686 12.2054 32.1647 12.2384C32.1609 12.2713 32.1518 12.303 32.1379 12.3316C32.1241 12.3602 32.1058 12.3852 32.0841 12.4051C32.0624 12.425 32.0378 12.4395 32.0115 12.4477L15.8074 17.1056C15.7976 17.1074 15.7876 17.1046 15.7794 17.0979C15.7712 17.0911 15.7653 17.0809 15.7629 17.0691C15.7605 17.0573 15.7618 17.0448 15.7664 17.0341C15.7711 17.0234 15.7788 17.0152 15.7882 17.0111H15.7827Z" fill="#182DEF"/>
<path d="M13.7476 21.5222C13.7476 21.5222 16.1027 21.5104 17.3372 21.0748C18.5717 20.6393 21.8249 19.4338 21.8249 19.4338C21.8249 19.4338 23.5538 19.265 24.4341 19.0523C25.3143 18.8396 29.7897 16.7917 30.972 17.0585C32.1544 17.3252 35.1988 16.3595 35.1988 16.3595L37.808 15.3263" stroke="#182DEF" stroke-width="0.41197" stroke-linecap="round" stroke-linejoin="round"/>
<path d="M14.0283 24.5239C14.0283 24.5239 16.3834 24.512 17.618 24.0765C18.8525 23.6409 22.1002 22.4405 22.1002 22.4405C22.1002 22.4405 23.8291 22.2717 24.7093 22.059C25.5896 21.8463 30.0649 19.7984 31.2473 20.0652C32.4296 20.3319 35.4741 19.3662 35.4741 19.3662L38.0833 18.333" stroke="#182DEF" stroke-width="0.41197" stroke-linecap="round" stroke-linejoin="round"/>
<path d="M22.9375 25.2853C22.9375 25.2853 24.6664 25.1165 25.5466 24.9038C26.4269 24.691 30.9023 22.6415 32.0846 22.9083C33.267 23.175 36.3114 22.211 36.3114 22.211L38.9219 21.1846" stroke="#182DEF" stroke-width="0.41197" stroke-linecap="round" stroke-linejoin="round"/>
<path d="M6.09473 16.0133C6.09473 16.0133 7.07384 16.5772 8.66404 15.6082C10.2542 14.6391 22.5584 3.00354 22.5584 3.00354L32.7203 9.91193L34.1636 9.42909C34.1636 9.42909 24.941 1.91629 22.7246 2.00071C20.5082 2.08512 19.8696 3.19431 19.8696 3.19431L6.09473 16.0133Z" fill="#182DEF"/>
<path d="M39.573 14.6307L41.5875 16.1772C41.5875 16.1772 43.1914 17.0483 43.3164 16.1772L39.2764 13.1062L39.573 14.6307Z" fill="#182DEF"/>
</svg>
