<svg width="48" height="55" viewBox="0 0 48 55" fill="none" xmlns="http://www.w3.org/2000/svg">
<path d="M4.58526 24.1382C4.66507 24.3857 4.76687 24.6216 4.88881 24.8417C5.01597 25.0539 5.16208 25.2479 5.32442 25.4201C5.64534 25.754 6.03915 25.9643 6.45668 26.0247C6.55989 26.0452 6.66766 26.0359 6.77238 26.0471C6.87938 26.0486 6.98634 26.0417 7.09263 26.0266L7.80296 25.965C8.27802 25.9407 8.7455 25.9258 9.21601 25.9128C11.092 25.8736 12.9634 25.8754 14.8318 25.8698C18.5757 25.8698 22.3195 25.8916 26.0634 25.9351L37.295 26.0956L38.6989 26.1199H39.0495H39.2241C39.2848 26.1199 39.3516 26.1199 39.4138 26.1311C39.6692 26.156 39.9198 26.231 40.156 26.3531C40.2696 26.4144 40.3806 26.4829 40.4884 26.5584C40.5946 26.6293 40.6978 26.7058 40.8011 26.7823C41.0076 26.9405 41.2049 27.1164 41.3915 27.3085C41.5824 27.5007 41.7569 27.7164 41.9121 27.9523C42.0733 28.1907 42.2048 28.4574 42.3021 28.7434C42.4028 29.0342 42.4584 29.3456 42.4661 29.6615C42.4661 29.9638 42.4661 30.24 42.4661 30.5311L42.457 32.2571L42.4387 35.7092C42.4387 35.7586 42.4228 35.8061 42.3943 35.8411C42.3658 35.8761 42.3272 35.8958 42.287 35.8958C42.2467 35.8958 42.2081 35.8761 42.1796 35.8411C42.1512 35.8061 42.1352 35.7586 42.1352 35.7092L42.1185 32.2571L42.1094 30.5311C42.1094 30.2474 42.1094 29.9489 42.1003 29.6783C42.0915 29.4207 42.0431 29.1674 41.9576 28.9319C41.8717 28.6873 41.756 28.4602 41.6146 28.2583C41.4734 28.0493 41.3153 27.8586 41.1426 27.6892C40.9679 27.5149 40.7838 27.3553 40.5916 27.2115C40.4945 27.1406 40.3958 27.0715 40.2956 27.0062C40.1998 26.9403 40.101 26.8812 39.9997 26.829C39.8026 26.7305 39.5941 26.6713 39.3819 26.6535C39.3273 26.6535 39.2772 26.6535 39.221 26.6535H38.6944H37.2904L26.0588 26.592C22.316 26.5733 18.5731 26.5547 14.8273 26.564C12.9573 26.5752 11.0844 26.5789 9.21146 26.6237C8.74702 26.6386 8.27802 26.6536 7.81813 26.6778L7.12906 26.7338C7.0061 26.7392 6.88299 26.7367 6.76024 26.7263C6.6317 26.7219 6.50348 26.7082 6.37624 26.6853C5.86 26.5881 5.38192 26.2929 5.01024 25.8418C4.83095 25.6203 4.6777 25.3691 4.5549 25.0955C4.43333 24.8236 4.34487 24.5312 4.29233 24.2278C4.28447 24.1819 4.29092 24.1342 4.31039 24.0939C4.32986 24.0537 4.36093 24.0239 4.39744 24.0105C4.43394 23.9971 4.47321 24.0011 4.50744 24.0216C4.54167 24.0422 4.56837 24.0778 4.58222 24.1214L4.58526 24.1382Z" fill="#182DEF"/>
<path d="M36.2612 35.461C36.4329 35.3893 36.6126 35.3503 36.7939 35.3453H38.1599L39.9661 35.3547C40.5732 35.3547 41.1712 35.3733 41.7738 35.392C42.0774 35.4032 42.3809 35.4088 42.6845 35.4386C42.7239 35.4386 42.7664 35.448 42.8196 35.4592C42.8551 35.4677 42.8894 35.4828 42.9212 35.5039H42.9364C43.0166 35.5239 43.0957 35.5501 43.1732 35.5823C43.354 35.6586 43.5124 35.7988 43.6285 35.9854C43.8139 36.3324 43.9189 36.7349 43.9321 37.1498C43.9594 37.5435 43.9533 37.8961 43.9594 38.2787V40.5029L43.9275 44.9421C43.9284 44.9558 43.9284 44.9695 43.9275 44.9832C43.8645 45.2467 43.7649 45.4948 43.6331 45.7165C43.5033 45.9379 43.3412 46.1277 43.155 46.2763C42.9663 46.4241 42.7576 46.529 42.5388 46.5861C42.4308 46.6097 42.3219 46.6252 42.2124 46.6327H41.8967C41.0878 46.6327 40.2788 46.657 39.4683 46.6682L37.0398 46.7092C36.8102 46.7159 36.5815 46.6723 36.3644 46.5805C36.1641 46.4984 35.9698 46.3939 35.777 46.2968C35.3903 46.0857 35.0225 45.8256 34.6797 45.5206C34.3307 45.214 34.0163 44.852 33.7447 44.4439C33.6757 44.3407 33.6114 44.2329 33.5519 44.1211L33.4578 43.9588C33.429 43.9028 33.4047 43.8412 33.3774 43.7834C33.3243 43.6658 33.2696 43.5501 33.2256 43.4307L33.0996 43.0575C33.0567 42.9367 33.0217 42.8119 32.9949 42.6843C32.9676 42.5555 32.9312 42.4286 32.9099 42.2962L32.8583 41.9006C32.8492 41.8353 32.8401 41.7681 32.8325 41.7028V41.5031L32.8188 41.1057C32.8188 40.9713 32.828 40.8407 32.8325 40.7082C32.8371 40.5757 32.8431 40.4432 32.8568 40.3126L32.9099 39.9189L32.9388 39.7211L32.9812 39.5345L33.0708 39.1482L33.1937 38.775C33.215 38.7135 33.2347 38.65 33.2575 38.5884L33.3349 38.4112C33.5347 37.9331 33.7938 37.4962 34.1029 37.1162C34.7099 36.3688 35.4483 35.8025 36.2612 35.461ZM36.4691 36.1794C35.7525 36.5026 35.1045 37.0205 34.5734 37.6946C34.3136 38.0237 34.0929 38.3962 33.9177 38.8012L33.8509 38.9523C33.8312 39.0027 33.8145 39.0568 33.7963 39.109L33.6885 39.4263L33.6066 39.7547L33.5641 39.9189L33.5383 40.0906L33.4852 40.4302C33.4715 40.544 33.4685 40.6616 33.4594 40.7772C33.4502 40.8929 33.4366 41.0105 33.4396 41.1262L33.4472 41.4733V41.6468C33.4472 41.7028 33.4594 41.7606 33.4654 41.8166L33.5049 42.1599C33.5201 42.2719 33.5504 42.382 33.5717 42.4921C33.5919 42.6041 33.6193 42.7139 33.6536 42.8205C33.9233 43.6957 34.3922 44.4569 35.0045 45.013C35.3109 45.3032 35.641 45.5533 35.9895 45.7594C36.1656 45.8621 36.3431 45.9591 36.5253 46.0393C36.69 46.1173 36.8649 46.1577 37.0413 46.1588L39.4698 46.1961C40.2803 46.1961 41.0908 46.2259 41.8983 46.2278H42.1897C42.2823 46.2242 42.3745 46.213 42.4659 46.1942C42.6437 46.1495 42.8137 46.0667 42.9683 45.9498C43.122 45.8284 43.2558 45.6727 43.3629 45.4907C43.4718 45.3111 43.5559 45.1106 43.6118 44.8974V44.9421C43.6225 44.1957 43.6361 43.4643 43.6407 42.7253V40.5067C43.6407 39.7603 43.6407 39.0288 43.6179 38.2917C43.6042 37.9279 43.6012 37.5453 43.5678 37.2039C43.5505 36.8772 43.4636 36.5619 43.3159 36.2895C43.2447 36.1818 43.1491 36.1026 43.0412 36.0619C42.9754 36.0377 42.9085 36.0184 42.8408 36.004L42.8029 35.991C42.7861 35.9864 42.7698 35.9795 42.7543 35.9704L42.6981 35.9369C42.7115 35.9511 42.7278 35.9608 42.7452 35.9648L42.6556 35.9555C42.3688 35.9425 42.0637 35.9555 41.7662 35.9555C41.1667 35.9555 40.5656 35.9798 39.9646 35.9984L38.1615 36.0507L37.2599 36.0805L36.8167 36.0973C36.6981 36.1029 36.5809 36.1306 36.4691 36.1794Z" fill="#182DEF"/>
<path d="M40.0361 41.0551C40.0337 41.4782 39.971 41.8975 39.8509 42.2941C39.7257 42.6927 39.538 43.0573 39.2984 43.367C38.8067 44.0009 38.1316 44.371 37.4194 44.397C37.0461 44.4277 36.6717 44.3637 36.3194 44.2092C35.967 44.0546 35.6442 43.8128 35.371 43.4986C35.0978 43.1844 34.88 42.8045 34.7311 42.3826C34.5822 41.9607 34.5054 41.5057 34.5054 41.0457C34.5054 40.5858 34.5822 40.1308 34.7311 39.7089C34.88 39.2869 35.0978 38.9071 35.371 38.5929C35.6442 38.2787 35.967 38.0369 36.3194 37.8823C36.6717 37.7278 37.0461 37.6638 37.4194 37.6945C38.1361 37.7193 38.8157 38.0923 39.3091 38.732C39.7912 39.3581 40.0526 40.1931 40.0361 41.0551ZM39.7325 41.0551C39.7147 40.3108 39.4576 39.6056 39.0176 39.0939C38.585 38.5984 38.0104 38.3334 37.4194 38.3569C37.0633 38.3737 36.7158 38.4965 36.4068 38.7147C36.0977 38.933 35.8364 39.2402 35.6452 39.61C35.4541 39.9797 35.3387 40.401 35.3091 40.8377C35.2795 41.2743 35.3366 41.7132 35.4754 42.1168C35.6142 42.5203 35.8305 42.8765 36.1059 43.1546C36.3813 43.4327 36.7075 43.6245 37.0565 43.7135C37.4054 43.8025 37.7667 43.786 38.1094 43.6656C38.452 43.5451 38.7658 43.3242 39.0237 43.0218C39.2427 42.7691 39.418 42.4647 39.539 42.1268C39.66 41.7888 39.7243 41.4243 39.728 41.0551H39.7325Z" fill="#182DEF"/>
<path d="M42.4357 46.4422L42.4934 51.2023C42.4941 51.2104 42.4941 51.2185 42.4934 51.2266C42.4577 51.5163 42.3903 51.7987 42.293 52.0663L42.2202 52.2529L42.1337 52.4395C42.0756 52.5638 42.0113 52.6834 41.9409 52.7977C41.6598 53.255 41.2995 53.6298 40.8861 53.8949C40.074 54.4547 39.1224 54.5443 38.2618 54.5536C36.5376 54.5835 34.8119 54.5909 33.0877 54.6096L22.7379 54.6936L12.3866 54.7253H9.8064H8.51173H8.18085C8.06246 54.7253 7.93952 54.7253 7.82417 54.716C7.59138 54.6983 7.35972 54.6628 7.13054 54.6096C6.66329 54.5077 6.21137 54.3189 5.79034 54.0498C5.57569 53.9068 5.37243 53.7394 5.18323 53.5497C4.99377 53.3516 4.82228 53.1289 4.67173 52.8854C4.38031 52.3933 4.17937 51.8292 4.08283 51.2322C3.9973 50.6606 3.97788 50.077 4.02516 49.4987V49.5453L4.05096 42.8782L4.09801 36.2092C4.12078 33.9868 4.13899 31.7626 4.17542 29.5402C4.21184 27.3178 4.23765 25.0954 4.28925 22.8712C4.28925 22.8217 4.30524 22.7742 4.33371 22.7392C4.36217 22.7042 4.40078 22.6846 4.44103 22.6846C4.46945 22.6857 4.49703 22.6966 4.52065 22.7161C4.54426 22.7355 4.56295 22.7628 4.57459 22.7947C4.93735 23.6661 5.55508 24.4498 6.31246 24.7334C6.50099 24.8054 6.69648 24.8462 6.89377 24.8547C6.99469 24.8675 7.09641 24.8675 7.19733 24.8547L7.50088 24.8267C7.71641 24.8081 7.938 24.7801 8.14898 24.7726L8.78645 24.7427C10.4854 24.6793 12.1822 24.6389 13.8771 24.6215C17.2709 24.5816 20.6636 24.5599 24.0554 24.5561L34.2321 24.5841L36.7759 24.5953H38.0478H38.6838C38.8978 24.5953 39.0996 24.5841 39.3455 24.6177C39.4637 24.6339 39.5805 24.6626 39.6946 24.7036C39.8039 24.7409 39.9101 24.7857 40.0149 24.8304C40.2248 24.9279 40.4279 25.0465 40.622 25.185C41.0153 25.4596 41.3609 25.8267 41.6389 26.2654C41.9138 26.7033 42.1146 27.2046 42.2293 27.7395C42.3293 28.2637 42.3666 28.8031 42.3401 29.3405C42.3401 29.3692 42.3308 29.3967 42.3143 29.417C42.2978 29.4373 42.2754 29.4487 42.2521 29.4487C42.2287 29.4487 42.2063 29.4373 42.1898 29.417C42.1733 29.3967 42.164 29.3692 42.164 29.3405C42.1351 28.8324 42.054 28.3308 41.9227 27.8477C41.6556 26.9123 41.1099 26.1362 40.3958 25.6757C40.2201 25.5607 40.038 25.4609 39.8509 25.3772C39.7553 25.338 39.6612 25.2988 39.5656 25.269C39.4757 25.2379 39.3838 25.2167 39.2909 25.2055C39.1148 25.1831 38.8902 25.1962 38.6838 25.1906H38.0478H36.7759L34.2321 25.1962L24.0629 25.1701C20.6707 25.157 17.28 25.1458 13.8938 25.1701C12.1984 25.1701 10.5031 25.1701 8.81073 25.2186L8.17781 25.2372C7.96381 25.2372 7.76346 25.2652 7.55552 25.2764L7.23072 25.3025C7.11811 25.3147 7.00486 25.3147 6.89225 25.3025C6.66566 25.2903 6.44149 25.2401 6.22594 25.1533C5.79841 24.9774 5.40947 24.6831 5.08912 24.293C4.92971 24.104 4.7849 23.8973 4.65656 23.6754C4.52495 23.4543 4.41013 23.2188 4.31354 22.9719L4.60343 22.8954C4.65504 25.1197 4.68084 27.3421 4.71727 29.5644C4.75369 31.7868 4.77191 34.0111 4.79619 36.2334L4.84324 42.9024L4.86753 49.5696C4.86832 49.5833 4.86832 49.597 4.86753 49.6106C4.82827 50.0888 4.84514 50.5714 4.91761 51.0437C4.98409 51.4925 5.12966 51.9179 5.34411 52.2902C5.77972 53.0142 6.51432 53.4359 7.28839 53.6225C7.48306 53.6676 7.67969 53.6987 7.87729 53.7158C7.97747 53.7158 8.06853 53.727 8.16719 53.7158H8.49048H9.78515H12.3654L22.7197 53.7456L33.0725 53.8315C34.7982 53.8483 36.5239 53.8557 38.2497 53.8856H38.573C38.6807 53.8856 38.7809 53.8763 38.8841 53.8707L39.1877 53.8539L39.4912 53.8016C39.693 53.7661 39.8923 53.7125 40.0877 53.6411C40.1864 53.6094 40.2774 53.5572 40.373 53.5161L40.5142 53.449L40.6463 53.365C41.005 53.1486 41.3202 52.837 41.5691 52.4525C41.631 52.3571 41.6878 52.2567 41.7391 52.1521L41.8165 51.9954L41.8817 51.8293C41.965 51.6145 42.0257 51.3875 42.0623 51.1538V51.1818L42.1185 46.4217C42.1185 46.3722 42.1345 46.3247 42.163 46.2897C42.1914 46.2547 42.23 46.2351 42.2703 46.2351C42.2928 46.2324 42.3155 46.2359 42.3368 46.2454C42.3581 46.255 42.3774 46.2702 42.3932 46.2901C42.4091 46.3099 42.4211 46.3339 42.4285 46.3602C42.4358 46.3865 42.4383 46.4146 42.4357 46.4422Z" fill="#182DEF"/>
<path d="M4.28761 22.9103C4.25506 22.5457 4.2622 22.1773 4.30886 21.815C4.39532 21.0846 4.63023 20.3927 4.99186 19.8035C5.08285 19.6561 5.18066 19.5153 5.28479 19.3818C5.39256 19.253 5.50336 19.128 5.62022 19.0086C6.09836 18.5531 6.65841 18.2453 7.25335 18.111C7.40098 18.0774 7.54992 18.0531 7.69958 18.0383C7.85136 18.0252 8.00313 18.0271 8.13973 18.0271H8.98514C10.1144 18.0271 11.2436 18.0271 12.3713 18.0551C13.499 18.083 14.6298 18.0942 15.7575 18.1334C15.7977 18.1334 15.8363 18.1531 15.8648 18.1881C15.8933 18.2231 15.9092 18.2705 15.9092 18.32C15.9092 18.3695 15.8933 18.417 15.8648 18.452C15.8363 18.487 15.7977 18.5066 15.7575 18.5066C14.6292 18.5439 13.5005 18.5694 12.3713 18.5831C11.2436 18.6055 10.1144 18.6055 8.98514 18.613H8.13973C7.87185 18.6066 7.60407 18.631 7.33987 18.6858C6.81799 18.794 6.32499 19.0551 5.90253 19.4471C5.4797 19.838 5.14144 20.3506 4.91749 20.9399C4.6924 21.5376 4.58032 22.1902 4.58965 22.8488V22.8655C4.59227 22.915 4.57879 22.9638 4.55217 23.001C4.52556 23.0383 4.48799 23.0611 4.44774 23.0643C4.40749 23.0675 4.36784 23.0509 4.33753 23.0182C4.30721 22.9855 4.28871 22.9393 4.2861 22.8898L4.28761 22.9103Z" fill="#182DEF"/>
<path d="M36.8125 18.3294C36.8125 18.3294 38.6172 18.0122 39.4322 18.6559C40.2473 19.2997 41.0031 20.3353 41.0608 21.6975C41.1185 23.0597 41.0608 25.7075 41.0608 25.7075" stroke="#182DEF" stroke-width="0.303557" stroke-linecap="round" stroke-linejoin="round"/>
<path d="M11.5486 24.8043L26.8858 0.160348C26.9121 0.11777 26.9451 0.082008 26.9827 0.0551108C27.0203 0.0282136 27.0619 0.01071 27.1051 0.00360297C27.1482 -0.00350402 27.1921 -7.47711e-05 27.2341 0.0136943C27.2762 0.0274633 27.3156 0.0513015 27.3502 0.0838429L27.3623 0.0969048L39.925 13.1774C39.9388 13.1919 39.9476 13.2124 39.9496 13.2345C39.9516 13.2567 39.9466 13.279 39.9357 13.2968L32.8825 25.073C32.8483 25.1219 32.8004 25.1531 32.7483 25.1603C32.6962 25.1676 32.6438 25.1504 32.6016 25.1121C32.5594 25.0739 32.5305 25.0175 32.5207 24.9542C32.5108 24.8909 32.5208 24.8254 32.5486 24.7708L39.8203 13.2017L39.8324 13.3211L26.9465 0.733204L27.4231 0.667895L11.7899 25.032C11.7644 25.0677 11.7289 25.0902 11.6904 25.0948C11.652 25.0994 11.6135 25.0858 11.5829 25.0568C11.5524 25.0277 11.5319 24.9855 11.5258 24.9386C11.5197 24.8917 11.5284 24.8437 11.5501 24.8043H11.5486Z" fill="#182DEF"/>
<path d="M25.9388 2.29511L22.7135 0.714631L23.0611 0.557888L15.8941 18.4097C15.8854 18.4318 15.8732 18.4515 15.8582 18.4678C15.8432 18.4841 15.8258 18.4966 15.8069 18.5045C15.788 18.5125 15.768 18.5158 15.7481 18.5143C15.7281 18.5127 15.7087 18.5064 15.6907 18.4955C15.6548 18.4738 15.6274 18.4356 15.6143 18.3891C15.6012 18.3426 15.6036 18.2917 15.6209 18.2474L22.5799 0.270528C22.5944 0.232712 22.6148 0.198806 22.6401 0.170782C22.6653 0.142759 22.6948 0.121175 22.7268 0.107285C22.7589 0.0933956 22.7929 0.0874776 22.8268 0.0898748C22.8607 0.0922721 22.8939 0.102937 22.9245 0.121249L26.0572 1.9611C26.0919 1.98253 26.1187 2.01952 26.1319 2.06446C26.1451 2.1094 26.1438 2.15886 26.1282 2.20265C26.1127 2.24643 26.084 2.28121 26.0482 2.2998C26.0124 2.31839 25.9722 2.31939 25.9358 2.30258L25.9388 2.29511Z" fill="#182DEF"/>
<path d="M36.9202 10.3057L37.7459 8.43977L37.8051 8.64316L31.9221 5.51392C31.9022 5.50568 31.884 5.49246 31.8684 5.47509C31.8529 5.45772 31.8405 5.43659 31.832 5.41303C31.8234 5.38946 31.819 5.36398 31.8189 5.33818C31.8187 5.31238 31.823 5.28684 31.8313 5.26315C31.8396 5.23947 31.8518 5.21816 31.8672 5.20058C31.8825 5.183 31.9007 5.16952 31.9205 5.16099C31.9403 5.15247 31.9613 5.14909 31.9822 5.15106C32.0031 5.15303 32.0235 5.16031 32.042 5.17245L37.8992 8.367C37.9271 8.3822 37.9492 8.41012 37.9608 8.4449C37.9724 8.47968 37.9726 8.51863 37.9614 8.5536L37.1919 10.4644C37.183 10.4864 37.1707 10.5061 37.1556 10.5223C37.1406 10.5385 37.1231 10.5509 37.1041 10.5588C37.0851 10.5667 37.0651 10.5699 37.0451 10.5683C37.0252 10.5666 37.0057 10.5602 36.9877 10.5493C36.9698 10.5384 36.9538 10.5232 36.9406 10.5047C36.9274 10.4862 36.9173 10.4647 36.9109 10.4414C36.9045 10.418 36.9019 10.3934 36.9032 10.3689C36.9045 10.3443 36.9098 10.3203 36.9187 10.2983L36.9202 10.3057Z" fill="#182DEF"/>
<path d="M15.7653 17.8983L18.0541 1.2052V1.1884C18.0615 1.13381 18.0775 1.08155 18.1014 1.03461C18.1252 0.987676 18.1564 0.946998 18.193 0.914917C18.2297 0.882836 18.2712 0.859985 18.3151 0.847676C18.3589 0.835368 18.4044 0.833845 18.4487 0.843197H18.4715L22.1719 1.9292C22.1913 1.93489 22.2097 1.94526 22.2259 1.9597C22.2421 1.97415 22.2558 1.99239 22.2662 2.01337C22.2767 2.03436 22.2836 2.05767 22.2867 2.08197C22.2898 2.10627 22.2889 2.13109 22.2842 2.15498C22.2755 2.19943 22.2539 2.23842 22.2234 2.26456C22.1929 2.2907 22.1557 2.30217 22.1187 2.2968L18.3455 1.72207L18.766 1.36567L16.0643 17.9729C16.0607 17.9974 16.0532 18.0208 16.0423 18.0417C16.0313 18.0627 16.0172 18.0808 16.0005 18.095C15.9669 18.1237 15.9255 18.1348 15.8852 18.1259C15.8449 18.117 15.8092 18.0888 15.7859 18.0475C15.7625 18.0062 15.7535 17.9552 15.7607 17.9057L15.7653 17.8983Z" fill="#182DEF"/>
<path d="M30.7319 3.81762L34.279 4.53416C34.2897 4.53602 34.2995 4.54285 34.3062 4.55326C34.313 4.56366 34.3163 4.57686 34.3154 4.59014L34.1788 6.47291C34.177 6.49741 34.1713 6.52124 34.162 6.54303C34.1527 6.56483 34.1401 6.58416 34.1247 6.59993C34.1093 6.6157 34.0916 6.62759 34.0725 6.63493C34.0534 6.64227 34.0333 6.64491 34.0134 6.64271C33.9934 6.6405 33.9741 6.63349 33.9563 6.62208C33.9386 6.61066 33.9229 6.59507 33.91 6.57618C33.8972 6.55729 33.8875 6.53549 33.8816 6.512C33.8756 6.48852 33.8735 6.46382 33.8753 6.43932C33.8744 6.43064 33.8744 6.42187 33.8753 6.41319L34.2319 4.57708L34.2668 4.63492L30.6894 4.18709C30.6492 4.18189 30.6122 4.15725 30.5868 4.11858C30.5613 4.07991 30.5493 4.03039 30.5536 3.9809C30.5578 3.93141 30.5778 3.88601 30.6093 3.85469C30.6407 3.82337 30.681 3.8087 30.7213 3.81389L30.7319 3.81762Z" fill="#182DEF"/>
<path d="M40.7891 35.7204V35.347" stroke="#182DEF" stroke-width="0.455335" stroke-linejoin="round"/>
<path d="M40.7889 34.6007V30.2716C40.7885 29.59 40.568 28.9364 40.1758 28.4546C39.7836 27.9728 39.2519 27.7021 38.6974 27.7021H8.18998C7.63633 27.7036 7.10575 27.9749 6.71454 28.4566C6.32333 28.9382 6.10343 29.5909 6.10303 30.2716V49.8644C6.10303 50.5464 6.32338 51.2004 6.71562 51.6826C7.10785 52.1649 7.63983 52.4358 8.19453 52.4358H38.702C39.2559 52.4343 39.7867 52.1627 40.178 51.6807C40.5692 51.1986 40.7889 50.5454 40.7889 49.8644V47.4853" stroke="#182DEF" stroke-width="0.455335" stroke-linejoin="round" stroke-dasharray="0.61 0.61"/>
<path d="M40.7891 47.1124V46.739" stroke="#182DEF" stroke-width="0.455335" stroke-linejoin="round"/>
<path d="M30.2314 24.8789L36.2327 15.3997C34.8242 13.907 36.0202 11.7891 36.0202 11.7891L29.0809 4.98572C28.0594 7.18384 25.9998 5.61455 25.9998 5.61455L14.0093 24.8789" stroke="#182DEF" stroke-width="0.303557" stroke-linecap="round" stroke-linejoin="round"/>
<path d="M29.4755 15.5845C30.5099 15.5845 31.3484 14.5536 31.3484 13.2819C31.3484 12.0102 30.5099 10.9792 29.4755 10.9792C28.4411 10.9792 27.6025 12.0102 27.6025 13.2819C27.6025 14.5536 28.4411 15.5845 29.4755 15.5845Z" stroke="#182DEF" stroke-width="0.303557" stroke-linecap="round" stroke-linejoin="round"/>
<path d="M18.8873 24.8174C18.5875 23.866 18.4823 22.8387 18.5807 21.8256C18.6792 20.8125 18.9783 19.8446 19.4519 19.0068L19.637 18.697C19.6962 18.5925 19.7736 18.5104 19.8404 18.4059C19.9072 18.3014 19.9755 18.2193 20.0529 18.1241L20.2836 17.8648C20.3595 17.7773 20.4402 17.6963 20.5249 17.6222L20.7754 17.3964L21.041 17.1949C21.129 17.1262 21.2202 17.0639 21.3142 17.0083C22.0592 16.5389 22.8853 16.2976 23.7224 16.3047C24.5595 16.3119 25.3829 16.5673 26.1225 17.0493C26.8564 17.5354 27.485 18.2302 27.956 19.0758C28.4193 19.9146 28.7108 20.8787 28.8057 21.8859C28.9006 22.8931 28.796 23.9135 28.5009 24.8603C28.4868 24.9068 28.4582 24.9446 28.4215 24.9652C28.3848 24.9859 28.3429 24.9877 28.3051 24.9704C28.2672 24.9531 28.2366 24.918 28.2198 24.8729C28.203 24.8277 28.2014 24.7762 28.2155 24.7297C28.4641 23.8466 28.5378 22.9033 28.4305 21.9782C28.3232 21.053 28.0381 20.1726 27.5987 19.4101C27.1593 18.6475 26.5784 18.0247 25.9041 17.5934C25.2298 17.1621 24.4815 16.9346 23.7214 16.9299C22.9681 16.9344 22.2264 17.1582 21.557 17.583C21.4719 17.6316 21.3897 17.6878 21.3111 17.7509L21.0713 17.9375L20.8452 18.1428C20.7677 18.2082 20.6946 18.2812 20.6266 18.3611L20.4202 18.5832C20.3504 18.6597 20.2927 18.7511 20.2259 18.8332C20.1592 18.9153 20.0939 18.9974 20.0392 19.0926L19.8693 19.3669C19.4254 20.1275 19.1318 21.0048 19.0117 21.9292C18.8915 22.8535 18.9482 23.7996 19.1771 24.6924C19.1895 24.7385 19.1868 24.7888 19.1695 24.8324C19.1522 24.8761 19.1218 24.9098 19.0846 24.9263C19.0475 24.9429 19.0066 24.9409 18.9705 24.9209C18.9345 24.9009 18.9063 24.8645 18.8918 24.8193L18.8873 24.8174Z" fill="#182DEF"/>
<path d="M36.3767 18.9805L37.8094 18.9525C38.0508 18.9525 38.2815 18.9395 38.5304 18.9413C38.7774 18.9587 39.0219 19.0113 39.2589 19.0981C39.7414 19.2648 40.179 19.5869 40.5263 20.0311C40.8656 20.4904 41.103 21.0496 41.2154 21.6545C41.225 21.7025 41.2187 21.7532 41.198 21.7956C41.1772 21.8379 41.1436 21.8684 41.1046 21.8803C41.0655 21.8921 41.0243 21.8844 40.9898 21.8589C40.9554 21.8333 40.9306 21.7921 40.9209 21.7441C40.8341 21.1928 40.6328 20.6786 40.3366 20.2513C40.029 19.8323 39.636 19.5218 39.1982 19.3519C38.9788 19.2624 38.7516 19.2048 38.5213 19.1802C38.2936 19.169 38.0477 19.169 37.811 19.1634L36.3782 19.1354C36.3619 19.1349 36.3465 19.1266 36.3351 19.1124C36.3238 19.0981 36.3175 19.0789 36.3175 19.0589C36.3171 19.0489 36.3183 19.039 36.321 19.0296C36.3238 19.0203 36.3281 19.0117 36.3336 19.0044C36.3391 18.9971 36.3458 18.9912 36.3532 18.9871C36.3606 18.983 36.3685 18.9808 36.3767 18.9805Z" fill="#182DEF"/>
<path d="M4.48348 21.3504C4.71503 20.8106 5.03386 20.3347 5.4204 19.9519C5.80694 19.5691 6.25304 19.2875 6.73132 19.1243C6.85122 19.087 6.97113 19.0478 7.09103 19.016L7.4553 18.9489C7.57672 18.9283 7.70118 18.9302 7.8226 18.919C7.94402 18.9078 8.06696 18.9078 8.18535 18.9078H9.62421L15.3751 18.8761C15.4153 18.8761 15.4539 18.8958 15.4824 18.9308C15.5109 18.9657 15.5269 19.0132 15.5269 19.0627C15.5269 19.1122 15.5109 19.1596 15.4824 19.1946C15.4539 19.2296 15.4153 19.2493 15.3751 19.2493L9.62421 19.2176H8.18535C8.06545 19.2176 7.94554 19.2176 7.83019 19.2176C7.71484 19.2176 7.59645 19.2176 7.47958 19.24L7.13353 19.2997C7.01969 19.3295 6.90738 19.3669 6.79355 19.3986C6.34363 19.5504 5.92268 19.8105 5.55504 20.1636C5.18723 20.5116 4.88444 20.9526 4.66713 21.4567V21.4679C4.66132 21.4826 4.65319 21.4957 4.64323 21.5064C4.63327 21.5172 4.62167 21.5254 4.60911 21.5306C4.59654 21.5358 4.58326 21.5379 4.57003 21.5368C4.55681 21.5356 4.5439 21.5313 4.53205 21.5239C4.50854 21.5088 4.49077 21.4829 4.48254 21.4519C4.47432 21.4209 4.47629 21.3871 4.48804 21.3578L4.48348 21.3504Z" fill="#182DEF"/>
</svg>
